HIERARCHY
ROOT Hips
{
  OFFSET 176.189 89.6231 506.032
  CHANNELS 6 Xposition Yposition Zposition Zrotation Xrotation Yrotation
  JOINT RightUpLeg
  {
    OFFSET -8.9458 -8.66707 0.101652
    CHANNELS 3 Zrotation Xrotation Yrotation
    JOINT RightLeg
    {
      OFFSET 0 -44.4227 1.3727
      CHANNELS 3 Zrotation Xrotation Yrotation
      JOINT RightFoot
      {
        OFFSET 0.253549 -42.0924 -1.46059
        CHANNELS 3 Zrotation Xrotation Yrotation
        JOINT RightToes
        {
          OFFSET 0.04 -4.41509 8.4991
          CHANNELS 3 Zrotation Xrotation Yrotation
          End Site
          {
            OFFSET -0.08 -0.137448 9.77979
          }
        }
      }
    }
  }
  JOINT Spine
  {
    OFFSET 0 11.8905 0
    CHANNELS 3 Zrotation Xrotation Yrotation
    JOINT Spine1
    {
      OFFSET 0 25.6574 0.127663
      CHANNELS 3 Zrotation Xrotation Yrotation
      JOINT HEad
      {
        OFFSET 0 8.73416 0.011341
        CHANNELS 3 Zrotation Xrotation Yrotation
        End Site
        {
          OFFSET -0.29 12.7742 2.51395
        }
      }
      JOINT LeftShoulder1
      {
        OFFSET 8.99 -0.362252 -0.22
        CHANNELS 3 Zrotation Xrotation Yrotation
        JOINT LeftArm
        {
          OFFSET 10.2827 -0.00338 0.322123
          CHANNELS 3 Zrotation Xrotation Yrotation
          JOINT LeftForeArm
          {
            OFFSET 32.7669 0.099144 -1.42434
            CHANNELS 3 Zrotation Xrotation Yrotation
            JOINT LeftHand
            {
              OFFSET 27.5643 0.085362 1.02216
              CHANNELS 3 Zrotation Xrotation Yrotation
              End Site
              {
                OFFSET 16.7443 -0.6 1.50291
              }
            }
          }
        }
      }
      JOINT RightShoulder
      {
        OFFSET -8.99 -0.362252 -0.22
        CHANNELS 3 Zrotation Xrotation Yrotation
        JOINT RightArm
        {
          OFFSET -10.2827 -0.00338 0.322123
          CHANNELS 3 Zrotation Xrotation Yrotation
          JOINT RightForeArm
          {
            OFFSET -32.8971 0.099144 -1.42434
            CHANNELS 3 Zrotation Xrotation Yrotation
            JOINT RightHand
            {
              OFFSET -27.4921 0.085362 1.02216
              CHANNELS 3 Zrotation Xrotation Yrotation
              End Site
              {
                OFFSET -16.6312 -0.6 1.50291
              }
            }
          }
        }
      }
    }
  }
  JOINT LeftUpLeg
  {
    OFFSET 8.9458 -8.66707 0.101652
    CHANNELS 3 Zrotation Xrotation Yrotation
    JOINT LeftLeg
    {
      OFFSET 0 -44.4227 1.3727
      CHANNELS 3 Zrotation Xrotation Yrotation
      JOINT LeftFoot
      {
        OFFSET -0.253549 -42.0924 -1.46059
        CHANNELS 3 Zrotation Xrotation Yrotation
        JOINT LeftToes
        {
          OFFSET -0.04 -4.41509 8.4991
          CHANNELS 3 Zrotation Xrotation Yrotation
          End Site
          {
            OFFSET 0.08 -0.047448 9.77979
          }
        }
      }
    }
  }
}
MOTION
Frames:	19
Frame Time:	0.0166667
182.387 99.2172 505.194 0.229903 -6.65909 19.8242 -18.5445 7.92631 -2.81468 13.1292 18.0315 3.40412 0.679587 -2.61004 -0.0940733 0.0462048 0.000533403 0.662642 5.46731 9.5833 4.53663 -0.0161698 0.0131695 0.00526169 -34.1558 25.4709 42.2074 -7.95139e-016 -7.95139e-016 -0 165.647 -69.9884 -168.38 -94.7523 56.3099 -42.8225 5.1106 16.9006 3.84587 17.7778 9.3209 7.85439 78.6745 -18.4551 79.2035 52.9228 52.7802 64.3407 -5.64797 18.9804 0.419572 20.8759 -17.2851 17.0459 5.38947 13.82 -12.8949 -25.8634 -3.04907 -1.54891 -1.18446e-009 1.5602e-007 -4.87131e-009 
182.178 98.576 505.327 0.262114 -6.73496 20.0719 -18.8408 8.79982 -2.66819 12.5179 18.5877 3.42816 1.15784 -2.65667 -0.0518096 0.0462048 0.000533403 0.662642 5.52004 9.64022 4.62154 -0.0161698 0.0131695 0.00526169 -34.0559 25.0948 41.5966 -0 0 6.36111e-015 165.996 -70.4742 -167.585 -96.3471 54.5503 -39.4647 5.22319 16.2101 4.26207 17.6023 9.65496 7.82382 78.6972 -18.7077 79.4072 53.2698 52.7969 64.1407 -5.26979 18.8777 -0.0571272 21.2054 -17.1542 17.0916 5.19747 14.3288 -13.466 -27.6752 -2.78151 -1.58269 -1.18447e-009 1.5602e-007 -4.87132e-009 
181.996 97.9278 505.523 0.301512 -6.79779 20.3153 -19.1097 9.57864 -2.4718 11.3341 19.5729 3.58105 2.13575 -2.63536 0.00748669 0.0462048 0.000533403 0.662642 5.57004 9.6961 4.71689 -0.0161698 0.0131695 0.00526169 -33.8829 24.7208 40.9316 -3.97569e-016 -7.95139e-016 -0 166.183 -71.0397 -166.826 -97.6985 53.0554 -36.6369 5.34518 16.4867 3.62047 17.61 9.95955 7.73913 78.4051 -19.047 79.4386 53.6297 52.8636 64.0266 -4.95332 18.8597 -0.473043 21.5894 -17.2084 17.1423 5.04633 15.2267 -14.0613 -29.3019 -2.53912 -1.60809 -1.18447e-009 1.5602e-007 -4.87131e-009 
181.865 97.2233 505.822 0.369643 -6.76631 20.5739 -19.3072 10.0194 -2.16797 8.4806 21.7833 4.34943 4.79515 -2.46865 0.162312 0.0462048 0.000533403 0.662642 5.57378 9.71641 4.80779 -0.0161698 0.0131695 0.00526169 -31.8231 24.4791 38.9207 3.97569e-016 1.59028e-015 -0 165.966 -71.8222 -166.082 -98.7198 52.5321 -34.9801 5.60433 18.4 1.2585 18.5307 9.8614 7.53081 76.7417 -19.6147 78.5336 53.8167 53.1425 64.3463 -5.01606 19.213 -0.499558 22.0204 -17.7571 17.1573 5.01702 17.8904 -14.6325 -30.5161 -2.27964 -1.62264 -1.18447e-009 1.5602e-007 -4.87132e-009 
181.687 96.4961 506.124 0.503813 -6.70823 20.8384 -19.2181 9.64114 -0.714441 4.91307 24.9715 4.61311 8.3513 -2.02544 0.304292 0.0462048 0.000533403 0.662642 5.54399 9.7158 4.87845 -0.0161698 0.0131695 0.00526169 -28.1919 24.4587 35.8208 -1.19271e-015 0 -3.18055e-015 165.293 -72.8229 -165.599 -99.4564 52.5431 -34.1229 5.82057 18.3694 1.29884 19.6564 9.47558 7.2305 74.5512 -20.1967 77.0576 53.7735 53.5075 65.0857 -5.18423 19.3743 -0.35653 22.4028 -18.6575 17.1214 5.12725 20.1724 -15.1152 -31.8015 -2.1415 -1.65003 -1.18446e-009 1.5602e-007 -4.87132e-009 
181.419 95.861 506.385 0.709715 -6.65512 21.1029 -19.1042 9.18356 0.725748 2.47033 26.9265 4.44634 10.9602 -1.64643 0.308894 0.0462048 0.000533403 0.662642 5.5168 9.67556 4.90897 -0.0161698 0.0131695 0.00526169 -24.8662 24.3966 32.9657 -3.97569e-016 0 -3.18055e-015 163.988 -74.037 -165.678 -100.035 52.839 -33.8162 5.92251 19.3386 0.178639 20.9331 8.86931 6.86935 71.966 -20.6518 75.1895 53.4523 53.9002 66.1914 -5.43371 19.6989 -0.0941266 22.5634 -19.843 16.9905 5.16925 22.492 -15.457 -30.7249 -2.23926 -1.59941 -1.18447e-009 1.5602e-007 -4.87132e-009 
181.077 95.2147 506.598 0.986921 -6.63106 21.358 -18.9908 8.6791 2.15503 0.906138 28.3654 3.90708 12.774 -1.3868 0.323108 0.0462048 0.000533403 0.662642 5.52651 9.58263 4.88474 -0.0161698 0.0131695 0.00526169 -21.854 24.3712 30.3621 -1.59028e-015 7.95139e-016 3.18055e-015 161.832 -75.4501 -166.619 -100.502 53.2507 -33.8634 5.92115 19.2423 0.430613 22.3071 8.11712 6.47787 69.1149 -20.871 73.0952 52.8288 54.2815 67.5962 -5.68017 19.8762 0.207374 22.6339 -20.9942 16.775 5.35357 24.5554 -15.6799 -29.7267 -2.27547 -1.55709 -1.18447e-009 1.5602e-007 -4.87131e-009 
180.658 94.5815 506.743 1.33054 -6.65392 21.5922 -18.8814 8.18637 3.56998 -0.00407483 29.5701 3.05983 13.9382 -1.20541 0.335339 0.0462048 0.000533403 0.662642 5.6016 9.43101 4.79834 -0.0161698 0.0131695 0.00526169 -19.1493 24.4354 28.0017 4.41391e-032 -7.95139e-016 3.18055e-015 158.41 -77.0294 -168.879 -100.954 53.6957 -34.121 5.82575 19.7498 -0.0990572 23.7257 7.29418 6.08789 66.1297 -20.799 70.9337 51.914 54.6248 69.2224 -5.93396 20.1165 0.54203 22.6239 -22.0522 16.4624 5.59343 26.493 -15.7713 -28.732 -2.28116 -1.50464 -1.18447e-009 1.5602e-007 -4.87131e-009 
180.16 93.9588 506.823 1.74335 -6.73603 21.7908 -18.7497 7.71545 4.96291 -0.2386 30.9671 1.97567 14.6533 -1.00419 0.33415 0.0462048 0.000533403 0.662642 5.74362 9.22199 4.6508 -0.0161698 0.0131695 0.00526169 -16.7346 24.6193 25.8776 -3.97569e-016 1.19271e-015 6.36111e-015 153.103 -78.7057 -173.09 -101.456 54.1466 -34.4464 5.68582 19.6591 0.113323 34.5494 -0.197645 7.35812 51.7857 -18.2651 61.0692 51.1797 54.5662 70.7831 -6.087 20.2508 0.794399 22.5344 -22.9962 16.0511 5.86424 28.3836 -15.7349 -27.7219 -2.28598 -1.45129 -1.18446e-009 1.5602e-007 -4.87132e-009 
179.605 93.3469 506.839 2.22546 -6.88929 21.9416 -18.6138 7.25881 6.33864 -0.028343 32.5122 0.708189 15.086 -0.828215 0.320321 0.0462048 0.000533403 0.662642 5.97076 8.97049 4.44867 -0.0161698 0.0131695 0.00526169 -14.615 24.9268 23.9733 -2.98177e-015 0 -3.18055e-015 144.917 -80.3568 179.735 -102.061 54.5535 -34.7786 5.53292 19.9198 -0.213249 34.6464 -0.135292 6.83354 50.4082 -17.8136 60.5565 50.1853 54.5267 72.5152 -6.23147 20.3866 1.01613 22.3621 -23.8056 15.5438 6.13854 30.237 -15.564 -26.6782 -2.29029 -1.39577 -1.18447e-009 1.5602e-007 -4.8713e-009 
179.018 92.7403 506.8 2.77132 -7.12395 22.0354 -18.5162 6.80941 7.70463 0.424131 34.1755 -0.665384 15.4155 -0.651001 0.29886 0.0462048 0.000533403 0.662642 6.28813 8.69557 4.20395 -0.0161698 0.0131695 0.00526169 -12.7758 25.3424 22.2776 5.96354e-016 3.97569e-016 3.18055e-015 132.607 -81.78 168.358 -102.802 54.9153 -35.0614 5.4174 19.8293 -0.15196 34.9011 -0.0235245 6.426 49.0203 -17.1806 60.0408 48.9555 54.5558 74.2311 -6.34222 20.4198 1.17318 22.1181 -24.475 14.9497 6.39436 32.0603 -15.2583 -25.5905 -2.29587 -1.3376 -1.18446e-009 1.5602e-007 -4.87132e-009 
178.42 92.1331 506.716 3.37047 -7.44599 22.0688 -18.4869 6.36204 9.06112 1.00189 35.95 -2.08336 15.7494 -0.467467 0.273801 0.0462048 0.000533403 0.662642 6.69628 8.41601 3.92949 -0.0161698 0.0131695 0.00526169 -11.2117 25.8431 20.7855 -7.95139e-016 -3.97569e-016 -3.18055e-015 115.455 -82.6872 152.084 -103.691 55.2395 -35.2729 5.35763 19.9321 -0.447773 35.1605 0.18073 6.10962 47.8111 -16.4335 59.6453 47.6276 54.5985 75.8 -6.54718 20.4033 1.36723 21.8218 -25.0092 14.2827 6.61433 33.8566 -14.8226 -24.4547 -2.30328 -1.27641 -1.18447e-009 1.5602e-007 -4.87132e-009 
177.826 91.5201 506.594 4.00863 -7.85545 22.0451 -18.5346 5.91133 10.3989 1.65414 37.8346 -3.50477 16.1364 -0.276098 0.246541 0.0462048 0.000533403 0.662642 7.1898 8.14955 3.63746 -0.0161698 0.0131695 0.00526169 -9.91521 26.4001 19.4947 -1.59028e-015 0 -3.18055e-015 95.5046 -82.8132 132.985 -104.695 55.5327 -35.4115 5.37946 19.8176 -0.540518 35.3743 0.516256 5.88032 46.8423 -15.6634 59.4208 46.3222 54.6213 77.1473 -6.71765 20.2994 1.49974 21.4925 -25.423 13.557 6.78672 35.6255 -14.2673 -23.27 -2.31203 -1.21192 -1.18447e-009 1.5602e-007 -4.87131e-009 
177.249 90.8974 506.439 4.66978 -8.34588 21.9744 -18.6528 5.45226 11.701 2.36707 39.823 -4.90309 16.5897 -0.0772606 0.217129 0.0462048 0.000533403 0.662642 7.7562 7.91189 3.33856 -0.0161698 0.0131695 0.00526169 -8.87508 26.9835 18.404 -1.78906e-015 -1.39149e-015 -6.36111e-015 77.2599 -82.1627 115.596 -105.762 55.8058 -35.4969 5.46882 19.8041 -0.865077 35.5134 1.00436 5.73819 46.14 -14.9477 59.3699 45.123 54.6156 78.236 -6.89143 20.1557 1.60553 21.1467 -25.7414 12.7858 6.90598 37.3649 -13.6099 -22.0389 -2.32093 -1.14403 -1.18446e-009 1.5602e-007 -4.87132e-009 
176.7 90.2641 506.25 5.33411 -8.90609 21.8737 -18.8266 4.97877 12.944 3.1455 41.9027 -6.26034 17.1054 0.127766 0.185028 0.0462048 0.000533403 0.662642 8.38029 7.71584 3.03972 -0.0161698 0.0131695 0.00526169 -8.0745 27.5653 17.5111 -1.09332e-015 0 -0 63.2434 -81.0309 102.465 -106.815 56.0676 -35.5547 5.6169 19.6577 -1.07488 35.5532 1.64733 5.67894 45.7143 -14.3366 59.4712 44.078 54.5914 79.0539 -6.98027 19.9626 1.62853 20.7948 -25.9911 11.9767 6.97286 39.0674 -12.8734 -20.7646 -2.32855 -1.07279 -1.18446e-009 1.5602e-007 -4.87131e-009 
176.189 89.6231 506.032 5.98206 -9.52052 21.7625 -19.0404 4.48656 14.1021 4.00088 44.0519 -7.56516 17.6722 0.336933 0.149621 0.0462048 0.000533403 0.662642 9.04249 7.57127 2.74632 -0.0161698 0.0131695 0.00526169 -7.49166 28.1216 16.8108 -1.68967e-015 1.09332e-015 -0 52.9728 -79.7492 93.1318 -107.784 56.3304 -35.617 5.78925 19.5701 -1.41589 35.4677 2.42989 5.69332 45.5676 -13.854 59.6974 43.2099 54.5632 79.6067 -7.01632 19.7537 1.60834 20.4406 -26.1987 11.1342 6.9932 40.7236 -12.0843 -19.45 -2.33349 -0.998361 -1.18446e-009 1.5602e-007 -4.87131e-009 
175.726 88.9807 505.788 6.59546 -10.1703 21.6601 -19.2805 3.97497 15.1503 4.94337 46.238 -8.81157 18.2761 0.547339 0.110592 0.0462048 0.000533403 0.662642 9.71982 7.48524 2.4636 -0.0161698 0.0131695 0.00526169 -7.10102 28.6337 16.2945 -2.21148e-015 -1.09332e-015 -0 45.1195 -78.5498 86.2782 -108.597 56.609 -35.7173 5.96586 19.4111 -1.66484 35.2286 3.32409 5.76881 45.6993 -13.5011 60.0254 42.5267 54.5436 79.9103 -6.9621 19.525 1.53027 20.0836 -26.3891 10.2611 6.97569 42.3243 -11.269 -18.0978 -2.33447 -0.920947 -1.18446e-009 1.5602e-007 -4.87132e-009 
175.32 88.3482 505.524 7.15822 -10.8344 21.581 -19.5371 3.44873 16.0673 5.97413 48.4156 -9.99515 18.9036 0.755169 0.0681794 0.0462048 0.000533403 0.662642 10.3868 7.46239 2.19848 -0.0161698 0.0131695 0.00526169 -6.8746 29.0875 15.9491 -3.79322e-016 5.1948e-016 6.36111e-015 38.5698 -77.5602 80.7946 -109.197 56.9238 -35.8957 6.11695 19.2963 -1.95511 34.8094 4.29454 5.89354 46.106 -13.2647 60.4394 42.03 54.5398 79.9854 -6.85424 19.2971 1.43182 19.7208 -26.5827 9.36032 6.9286 43.8593 -10.4464 -16.7095 -2.33061 -0.840835 -1.18446e-009 1.5602e-007 -4.87132e-009 
174.98 87.7403 505.25 7.6565 -11.4897 21.5334 -19.8049 2.91786 16.8377 7.07808 50.5276 -11.1074 19.5441 0.955678 0.0233353 0.0462048 0.000533403 0.662642 11.017 7.50499 1.96088 -0.0161698 0.0131695 0.00526169 -6.78246 29.4731 15.757 -1.63997e-015 -3.47873e-016 -3.18055e-015 30.997 -76.8363 72.8379 -108.58 57.9199 -34.4545 6.17374 18.5309 -2.09388 34.194 5.30112 6.05962 46.7748 -13.1242 60.9278 41.7197 54.5536 79.8564 -6.68786 19.0728 1.31707 19.3493 -26.7937 8.43684 6.85624 45.3169 -9.62362 -15.285 -2.32157 -0.758369 -1.18446e-009 1.5602e-007 -4.87132e-009 
